<?xml version="1.0" encoding="UTF-8"?>
<svg id="Capa_2" data-name="Capa 2" xmlns="http://www.w3.org/2000/svg" viewBox="0 0 369.83 375.08">
  <defs>
    <style>
      .cls-1 {
        fill: #1f6b3d;
        stroke-width: 0px;
      }
    </style>
  </defs>
  <g id="Capa_1-2" data-name="Capa 1">
    <g>
      <path class="cls-1" d="M369.83,186.69c-.59,81.36-46.51,150.27-122.42,176.75-69.22,24.15-132.76,10.48-187.36-38.81C-7.53,263.65-13.14,169.11,18.81,105.82,49.81,44.41,100.22,8.01,169.22,1c103.16-10.49,183.9,63.35,198.13,155.03,1.57,10.11,1.69,20.44,2.49,30.67ZM356.4,186.94c-.75-9.09-1.08-18.24-2.33-27.27C342.57,76.78,269.27,6.98,172.76,14.47,81.93,21.51-7.53,107.53,18.73,227.25c20.55,93.68,114.36,150.58,207.77,128.39,76.25-18.12,129.39-87.36,129.9-168.7Z"/>
      <path class="cls-1" d="M308.48,188.05c0,25.48,0,50.97,0,76.45,0,11.42-4.71,15.86-16.38,16.22-19.94.61-40.02.3-59.75,2.73-13.35,1.64-26.3,7-39.22,11.33-4.44,1.49-8,2.11-12.42-.02-19.72-9.5-40.82-13.09-62.52-13.52-12.37-.25-24.74.12-37.11.03-11.66-.08-16.23-4.81-16.23-16.31,0-50.59,0-101.18,0-151.77,0-12.77,4.25-17.04,17.15-17.06,23.39-.05,46.92-1.5,69.87,4.36,10.27,2.62,20.26,6.4,30.22,10.07,3.22,1.18,5.74,1.8,9.05.15,22.06-11.01,45.72-15.18,70.15-15.68,10.85-.22,21.7-.18,32.55-.13,9.46.04,14.51,4.89,14.56,14.42.12,26.24.04,52.49.04,78.74h.03ZM180.5,279.96c0-3.32,0-5.4,0-7.48-.02-46.98-.15-93.95.11-140.92.03-5.54-1.86-7.9-6.7-9.98-30.21-12.95-61.98-12.22-93.82-11.16-.31.01-.6.41-1.09.77v156.16c34.31-.42,68.48-1.64,101.5,12.62ZM194.22,279.93c32.69-14.71,66.37-13.21,100.07-13.16V107.79c-21.54,1.39-42.65,1.89-63.51,4.45-10.74,1.32-21.03,6.3-31.53,9.61-4.04,1.27-5.2,3.87-5.18,8.13.18,43.56.13,87.12.14,130.69,0,6.05,0,12.1,0,19.27Z"/>
      <path class="cls-1" d="M131.39,204.79c4.87-6.15,8.97-11.85,13.67-17,1.94-2.12,5.27-4.35,7.78-4.14,2.15.17,4.93,3.4,5.86,5.87,4.16,11,7.85,22.18,11.51,33.36,2.15,6.57-.85,11.16-7.71,11.22-21.49.19-42.98.17-64.46,0-5.9-.05-8.99-4.5-7.04-10.2,4.06-11.85,8.32-23.65,12.95-35.28,2.88-7.25,8.65-7.89,13.54-1.84,4.53,5.6,8.81,11.41,13.9,18.02Z"/>
      <path class="cls-1" d="M120.81,162.3c-.05-9.36,7.35-17.22,16.21-17.21,9.13.01,16.64,7.69,16.53,16.9-.1,9.01-7.48,16.51-16.28,16.56-8.89.05-16.41-7.38-16.46-16.26ZM137.01,153.72c-2.54,3.61-5.26,5.78-5.1,7.71.17,2.1,3.01,4,4.68,5.98,1.95-1.91,5.04-3.58,5.49-5.79.36-1.76-2.52-4.16-5.07-7.9Z"/>
      <path class="cls-1" d="M246.28,248.71c-8.56,0-17.11.05-25.67-.01-7.01-.05-9.55-2.61-9.61-9.66-.08-10.26-.15-20.52-.05-30.78.06-6.39,3.01-9.52,9.4-9.58,17.68-.16,35.37-.18,53.05-.06,6.08.04,8.84,3.09,8.91,9.38.11,10.64.13,21.28.05,31.92-.04,6-2.69,8.69-8.7,8.77-9.13.12-18.25.03-27.38.03ZM224.55,212.46v22.16h15.01v-22.16h-15.01ZM268.86,212.53h-14.81v22.19h14.81v-22.19Z"/>
      <path class="cls-1" d="M243.93,154.83c-7.03,0-14.05.01-21.08,0-4.53,0-8.09-1.58-8.08-6.68.01-4.8,3.17-7.27,7.74-7.31,14.62-.14,29.25-.09,43.87-.03,4.41.02,7.46,2.14,7.53,6.75.07,4.93-3.12,7.07-7.77,7.12-7.41.07-14.81.02-22.22.02v.14Z"/>
      <path class="cls-1" d="M244.31,181.26c-7.23,0-14.46-.04-21.69.02-4.47.04-7.67-1.74-7.66-6.44,0-4.47,2.98-6.97,7.39-7.02,14.84-.19,29.67-.2,44.51-.24,4.58-.01,7.3,2.4,7.29,6.93,0,4.31-2.85,6.56-7.02,6.65-7.61.15-15.22.04-22.83.04v.07Z"/>
    </g>
  </g>
</svg>
