<?xml version="1.0" encoding="UTF-8"?>
<svg id="Capa_2" data-name="Capa 2" xmlns="http://www.w3.org/2000/svg" viewBox="0 0 366.82 375.77">
  <defs>
    <style>
      .cls-1 {
        fill: #1f6b3d;
        stroke-width: 0px;
      }
    </style>
  </defs>
  <g id="Capa_1-2" data-name="Capa 1">
    <g>
      <path class="cls-1" d="M366.81,185.82c-.05,46.35-12.77,86.92-41.22,121.29-39.58,47.81-90.57,71.97-153.39,68.28-82.73-4.86-149.93-69.28-166.01-138.91C-6.9,179.82-.1,125.91,35.01,77.88,65.92,35.59,107.22,8.09,159.5,1.71c77.25-9.42,137.64,20.12,179.85,85.45,18.88,29.22,27.89,64.87,27.47,98.66ZM14.28,188.06c-.51,20.5,1.96,41.7,10.22,61.62,26.32,63.48,72.91,102.5,141.75,110.83,58.29,7.05,107.19-13.96,145.43-58.07,35.6-41.07,46.84-89.68,39.61-142.81C337.75,60.05,241.72-5.35,144.25,18.7,73.9,36.05,11.56,104.19,14.28,188.06Z"/>
      <path class="cls-1" d="M124.55,113.63c5.14-32.75,23.1-50.83,49.52-50.6,25.13.22,42.45,18.56,46.92,50.57,4.68,0,9.53-.03,14.39,0,13.86.09,20.55,6.54,21.63,20.25,1.43,18.17,3.15,36.32,4.82,55.28,4.86,0,9.56-.04,14.26,0,15,.15,26.05,10.84,26.19,25.88.21,22.45.23,44.91,0,67.37-.15,15.04-11.6,26.15-26.72,26.24-20.19.13-40.38.11-60.56.02-11.5-.05-19.64-5.79-24.06-16.11-1.59-3.72-3.37-4.64-7.05-4.62-28.38.13-56.76.08-85.13.09-15.43,0-24.69-9.8-23.28-24.95,4.08-43.77,8.24-87.53,12.41-131.28,1-10.5,8.75-17.76,19.35-18.1,5.69-.18,11.39-.03,17.32-.03ZM125.25,127.35c-6.39,0-11.87.03-17.36-.01-4.2-.03-6.14,2-6.53,6.17-4.07,43.36-8.24,86.7-12.34,130.06-.72,7.66,1.99,10.59,9.53,10.59,27.79,0,55.58-.03,83.36-.07,2.03,0,4.06-.17,6.66-.29,0-2.4,0-4.27,0-6.13,0-16.93-.02-33.85.02-50.78.04-16.95,11.02-27.89,27.86-27.86,6.85.01,13.7-.03,20.55-.04,3.53,0,7.05,0,11.11,0-1.52-19.49-2.84-37.86-4.56-56.19-.18-1.88-2.6-4.91-4.21-5.07-6.14-.6-12.38-.24-19.1-.24,0,6.25.07,11.73-.02,17.21-.09,5.68-2.6,8.95-6.81,8.58-5.39-.47-6.6-4.23-6.5-8.94.11-5.44.03-10.89.03-16.59h-68.14c0,5.95.04,11.44-.01,16.93-.05,5.56-2.63,8.9-6.88,8.53-4.89-.42-6.74-3.63-6.69-8.27.06-5.49.01-10.98.01-17.59ZM288.84,248.92h-.03c0-11.03.08-22.07-.03-33.1-.08-8.43-4.63-13.21-13.05-13.27-20.18-.14-40.36-.11-60.54.01-8.11.05-13.23,5.15-13.28,13.26-.13,21.88-.15,43.75-.04,65.63.04,8.53,5.12,13.46,13.54,13.48,19.8.05,39.6.06,59.4,0,9.41-.03,13.96-4.62,14.01-14.06.06-10.65.01-21.31.01-31.96ZM139.32,113.06h67.31c.91-19.83-14.53-36.34-33.32-36.15-19.62.2-35.21,16.56-33.99,36.15Z"/>
      <path class="cls-1" d="M252.15,255.55c0,5.4-.02,9.76,0,14.11.03,4.55-2.24,7.48-6.73,7.5-4.53.01-6.72-3.04-6.76-7.51-.04-4.36,0-8.73,0-14.16-4.35,0-8.44,0-12.52,0-4.52,0-7.94-1.55-8.27-6.62-.28-4.35,2.8-6.74,8.5-6.83,3.77-.06,7.55-.01,12.22-.01,0-4.67-.05-8.96.01-13.24.08-5.49,2.73-8.73,7.05-8.38,5.09.41,6.5,3.87,6.44,8.39-.06,4.14-.01,8.29-.01,13.26,4.85,0,9.16.04,13.47-.01,4.52-.05,7.49,1.98,7.58,6.59.09,4.66-3.02,6.75-7.38,6.9-4.32.15-8.65.03-13.59.03Z"/>
    </g>
  </g>
</svg>
