<?xml version="1.0" encoding="UTF-8"?>
<svg id="Capa_2" data-name="Capa 2" xmlns="http://www.w3.org/2000/svg" viewBox="0 0 368.63 378.32">
  <defs>
    <style>
      .cls-1 {
        fill: #1f6b3d;
        stroke-width: 0px;
      }
    </style>
  </defs>
  <g id="Capa_1-2" data-name="Capa 1">
    <g>
      <path class="cls-1" d="M368.59,188.87c-3.23,81.78-40.28,142.27-116.34,174.74-58.2,24.84-115.5,17.67-168.23-17.35C40.5,317.36,12.35,276.94,3.36,225.22-11.23,141.38,22.3,68.55,93.22,27.09c67.26-39.32,134.82-35.36,198.78,8.81,44.1,30.45,77.96,87.69,76.58,152.98ZM354.61,188.34c-.24-36.9-8.15-65.04-26.5-94.19C289.5,32.78,216.4,2.84,146.6,19.62,79.58,35.74,17.69,98.2,14.09,177.83c-2.27,50.24,11.6,94.67,46.88,130.91,48.63,49.96,107.54,66.93,174.43,46.42,72.81-22.33,119.7-89.92,119.21-166.81Z"/>
      <path class="cls-1" d="M38.92,192.45c3.14-41.06,22.18-76.71,65.3-96.48,32.72-15,72.6-8.42,96.76,15.4,3.87,3.82,7.01,8.49,9.92,13.13,2.22,3.54,2.02,7.52-1.97,10-3.97,2.46-6.75.12-9.19-2.97-23.38-29.58-60.25-38.06-94.03-21.04-33.29,16.77-50.15,45.18-52.47,81.38-2.36,36.87,11.9,67.22,43.41,87.62,44.2,28.61,103.38,8.1,118.53-40.83,2.34-7.56,2.25-16.04,2.3-24.1.04-5.95,1.37-9.67,5.67-10.05,4.02-.35,7.32,3.3,7.92,8.75,2.66,24.33-5.78,44.91-21.88,62.56-37.05,40.61-100.65,40.29-139.21-.47-20.76-21.94-30.51-48.2-31.06-82.9Z"/>
      <path class="cls-1" d="M284.75,106.9c-1.88,15.33-5.62,32.16-18.75,42.42-22.75,17.77-40.4,40.41-61.61,59.5-4.12,3.71-7.15,7.59-10.21,12.02-2.77,4-7.07,7.68-11.52,9.62-7.26,3.15-15.13,5-22.87,6.86-1.96.47-5.11-.5-6.4-1.96-1-1.13-.24-4.12.21-6.19.78-3.65,2.4-7.17,2.82-10.84,1.45-12.53,3.72-24.36,18.02-28.82.5-.16.97-.58,1.33-.98,15.69-17.5,31.42-34.96,47-52.55,2.18-2.47,3.54-5.65,5.49-8.34,2.88-3.97,5.46-8.33,9.03-11.59,10.11-9.21,21.88-15.83,35.11-19.47,7.94-2.19,12.52,1.48,12.35,10.33ZM242.69,153.6c-4.26-4.02-7.09-6.69-10.23-9.65-15.15,16.2-29.87,31.93-44.73,47.81,3.33,3.16,5.75,5.46,8.17,7.76-.36-.61-.71-1.22-1.07-1.83,15.79-14.55,31.59-29.11,47.85-44.09Z"/>
      <path class="cls-1" d="M287.79,209.03c0,11.13,0,21.34,0,31.55,0,6.84.11,13.68.02,20.52-.04,2.96.17,5.12,4.07,5.21,3.96.1,6.45,2.52,6.24,6.62-.24,4.64-3.5,5.8-7.59,5.77-6.66-.06-13.31-.07-19.97.02-4.17.05-8.07-.7-8.3-5.64-.21-4.7,3.31-6.4,7.53-6.81.74-.07,1.48-.24,2.68-.45v-56.49c-3.49,0-6.52.2-9.51-.05-3.96-.33-5.99,1.48-6.95,5.13-.52,1.99-.96,4.31-2.27,5.7-1.22,1.29-3.74,2.38-5.32,2.01-1.53-.36-3.56-2.63-3.67-4.19-.42-5.86-.29-11.77-.08-17.66.14-3.99,3.3-4.07,6.25-4.08,15.4-.03,30.81-.04,46.21-.05,4.56,0,9.13.16,13.69,0,3.77-.13,5.73,1.2,5.65,5.21-.11,5.32.36,10.68-.21,15.94-.2,1.88-2.54,4.67-4.22,4.92-1.78.27-4.63-1.53-5.78-3.24-1.83-2.72-1.88-7.97-4.03-8.85-3.94-1.62-8.86-.82-14.47-1.09Z"/>
      <path class="cls-1" d="M93.79,198.79c10.77-.12,19.35,8.18,19.46,18.81.11,10.68-8.68,19.84-19.18,19.99-9.76.14-18.83-9.32-18.94-19.75-.11-10.26,8.4-18.94,18.66-19.05Z"/>
      <path class="cls-1" d="M118.91,163.43c-.07,10.43-8.51,19.05-18.72,19.13-9.82.07-18.7-9.18-18.55-19.35.14-9.97,8.78-18.73,18.52-18.78,10.27-.05,18.83,8.62,18.75,19Z"/>
      <path class="cls-1" d="M127.95,138.24c-.11-10.47,8.33-19.19,18.53-19.16,9.55.03,18.08,8.57,18.27,18.3.21,10.79-7.73,19.18-18.22,19.22-10.33.04-18.46-8-18.58-18.36Z"/>
      <path class="cls-1" d="M135.59,275.53c-11.22-.03-19.49-8.27-19.53-19.45-.04-11.58,8.71-20.68,19.88-20.68,10.7,0,19.43,9.27,19.37,20.58-.06,10.67-9.04,19.58-19.72,19.55ZM141.96,256.58c.15-5.09-2.77-8.54-6.68-8.33-4.08.21-6.06,2.82-6.4,6.67-.38,4.28,2.54,7.91,6.42,7.82,4.34-.11,6.41-2.75,6.66-6.16Z"/>
    </g>
  </g>
</svg>
