<?xml version="1.0" encoding="UTF-8"?>
<svg id="Capa_2" data-name="Capa 2" xmlns="http://www.w3.org/2000/svg" viewBox="0 0 388.82 393.87">
  <defs>
    <style>
      .cls-1 {
        fill: #1f6b3d;
        stroke-width: 0px;
      }
    </style>
  </defs>
  <g id="Capa_1-2" data-name="Capa 1">
    <g>
      <path class="cls-1" d="M207.26,393.87c-91.75.11-161.58-47.45-192.44-122.31C-21.49,183.48,10.79,81.16,91.08,29.83,174.43-23.45,287.65-3.7,346.46,75.84c48.02,64.96,55.7,136.1,20.48,208.59-34.36,70.72-93.7,106.56-159.69,109.44ZM199.13,379.77c44.75-.61,86.96-18.18,121.44-53.1,30.26-30.65,47.96-67.65,51.98-110.74,5.37-57.62-11.71-107.9-52.49-148.85C260.66,7.44,171.54-2.39,99.64,41.34,38.09,78.78,5.14,151.95,16.46,226.07c13.42,87.84,89.75,153.66,182.67,153.7Z"/>
      <path class="cls-1" d="M276.04,205.81c27.76,3.15,46.68,17.4,57.35,42.25,16.2,37.71-8.51,83.43-48.91,90.98-20.42,3.82-38.54-1.09-54.61-14.25-2.07-1.7-5.27-2.84-7.96-2.85-38.3-.16-76.61-.06-114.91-.05-18.85,0-30.78-12.08-30.78-30.93.02-58.61-.01-117.22,0-175.84,0-18.07,11.6-29.63,29.66-29.64,6.49,0,12.98,0,19.83,0,1.37-7.04,6.25-8.73,12.57-8.15,1.32.12,2.68-.13,3.99.05,4.32.59,6.53-.81,8.24-5.29,3.03-7.9,9.58-12.16,18.09-12.88,3.81-.32,7.66-.19,11.48-.15,13.45.12,20,4.87,24.71,18.3,4.37,0,8.97.01,13.58,0,3.69-.01,6.77,1.35,7.76,5,.75,2.79,2.25,3.22,4.65,3.17,5.49-.1,10.99-.12,16.49-.06,16.95.17,28.64,12,28.69,29.17.08,28.47.05,56.95.07,85.42,0,1.81,0,3.62,0,5.75ZM262.43,206.4c0-9.78,0-19.26,0-28.74,0-21.14.03-42.28-.01-63.42-.02-7.46-4-13.75-10.49-14.38-8.15-.79-16.44-.19-24.82-.19-.14,1.54-.28,2.68-.35,3.82-.82,12.53-7.63,18.94-20.25,19.02-4.99.03-9.99.04-14.98.04-15.32,0-30.64.18-45.95-.05-11.81-.18-18.82-7.42-19.2-19.12-.04-1.26-.27-2.51-.45-4.06-6.98,0-13.61,0-20.25,0-10.7.01-15.99,5.12-16,15.89-.03,58.76-.02,117.52.04,176.28.01,10.98,5.73,16.52,16.7,16.52,34.46,0,68.93-.02,103.39-.03,1.59,0,3.17,0,5.03,0-24.12-46.05,4.2-93.87,47.59-101.59ZM219.16,273.09c-.11,29.27,23.75,53.77,52.48,53.86,29.03.1,53.31-24.59,53.37-54.26.06-28.99-24.17-53.33-53.09-53.31-28.58.02-52.64,24.51-52.76,53.7ZM213.21,91.35c-3.87,0-7.85.01-11.82,0-7.88-.03-9.01-1.11-9.26-8.75-.19-6.07-2.99-9.16-9.12-9.61-3.64-.27-7.31-.18-10.97-.13-7.71.11-10.4,2.83-10.55,10.56-.12,6.09-1.89,7.85-8.17,7.93-4.6.06-9.19.01-14.13.01,0,3.53,0,6.34,0,9.15.02,6.96,1.53,8.53,8.44,8.54,17.13.02,34.27-.24,51.4.08,15.43.29,15.63-.51,14.9-16.66,0-.14-.16-.27-.72-1.12Z"/>
      <path class="cls-1" d="M196.82,168.9c-11.96,0-23.93.03-35.89-.01-5.64-.02-8.62-2.35-8.71-6.66-.1-4.56,2.93-7.14,8.72-7.15,23.93-.04,47.85-.04,71.78,0,5.53,0,8.56,2.52,8.56,6.82,0,4.25-3.09,6.91-8.57,6.95-11.96.09-23.93.03-35.89.03v.02Z"/>
      <path class="cls-1" d="M184.83,214.84c-8.15,0-16.3.04-24.45-.02-5.33-.04-8.16-2.42-8.14-6.65.02-4.19,2.96-6.93,8.01-6.95,16.63-.09,33.27-.06,49.9-.02,4.22.01,7.05,1.99,7.44,6.4.35,3.93-2.64,6.96-7.31,7.06-8.48.19-16.96.05-25.45.05v.12Z"/>
      <path class="cls-1" d="M137.39,208.13c.1,13.24-.52,13.88-13.55,13.89-1.33,0-2.66,0-3.99,0-7.69-.03-9.39-1.7-9.44-9.29-.02-3.49-.07-6.98,0-10.47.1-6.22,2.13-8.18,8.5-8.26,3.49-.04,6.98-.03,10.47.02,6.07.09,7.93,1.99,8.01,8.12.03,1.99,0,3.99,0,5.98Z"/>
      <path class="cls-1" d="M137.4,162.22c-.08,13.68-.3,13.91-13.99,13.94-12.46.03-12.99-.48-13.01-12.75q-.03-15.32,15.19-15.24c1.33,0,2.66,0,3.99.04,5.55.2,7.67,2.37,7.82,8.02.05,1.99,0,3.99,0,5.99Z"/>
      <path class="cls-1" d="M137.41,254.07c.03,13.34-.41,13.78-13.63,13.77-12.96-.01-13.28-.34-13.35-13.5-.07-14.39-.02-14.45,14.36-14.45,1.5,0,3,0,4.49.05,6.08.2,8.03,2.16,8.12,8.15.03,2,0,3.99,0,5.99Z"/>
      <path class="cls-1" d="M175.38,260.24c-5.33,0-10.66.1-15.98-.03-4.52-.11-7.17-2.67-7.19-6.58-.02-3.86,2.7-6.69,7.08-6.75,10.82-.16,21.64-.19,32.46-.09,4.82.05,7.68,2.74,7.7,6.67.02,4.13-3.02,6.72-8.08,6.77-5.33.05-10.66.01-15.98.01Z"/>
      <path class="cls-1" d="M276.39,292.31c-4.99,0-9.99.1-14.98-.03-6.04-.16-7.82-1.83-9.09-7.75-1.99-9.27-4.13-18.5-6.02-27.78-.61-2.97-1.56-4.7-5.07-4.67-3.58.03-5.39-2.38-5.2-5.94.2-3.65,2.37-5.29,5.95-5.22,1.83.04,3.66.05,5.49.03,4.89-.04,8.06,2.28,8.66,7.14.43,3.49,2.09,4.23,5.28,4.19,12.49-.14,24.97-.07,37.46-.04,8.02.02,10.49,3.25,8.46,10.99-1.86,7.08-3.72,14.15-5.69,21.2-1.74,6.26-3.65,7.68-10.28,7.88-2.5.08-4.99.06-7.49.07-2.5.01-4.99,0-7.49,0,0-.02,0-.05,0-.07ZM263.41,280.51c8.5,0,16.46.05,24.41-.07.95-.01,2.49-.75,2.72-1.48,1.45-4.64,2.61-9.37,3.94-14.35h-34.5c1.18,5.45,2.25,10.42,3.44,15.89Z"/>
      <path class="cls-1" d="M261.36,293.92c4.56.07,7.97,3.41,7.9,7.76-.06,4.33-4.05,8.03-8.51,7.9-4.52-.13-7.89-3.54-7.8-7.91.1-4.74,3.45-7.83,8.4-7.76Z"/>
      <path class="cls-1" d="M298.13,301.66c.1,4.1-3.67,8.04-7.85,8.22-4.22.18-7.95-3.44-8.08-7.83-.13-4.56,3.07-7.86,7.72-7.97,4.58-.11,8.1,3.15,8.2,7.58Z"/>
    </g>
  </g>
</svg>
