<?xml version="1.0" encoding="UTF-8"?>
<svg id="Capa_2" data-name="Capa 2" xmlns="http://www.w3.org/2000/svg" viewBox="0 0 353.9 362.68">
  <defs>
    <style>
      .cls-1 {
        fill: #1f6b3d;
        stroke-width: 0px;
      }
    </style>
  </defs>
  <g id="Capa_1-2" data-name="Capa 1">
    <g>
      <path class="cls-1" d="M181.46.06c89.21,2.51,163.22,72.28,171.46,161.55,5.16,55.91-9.97,105.48-48.57,146.43-38.31,40.64-86.28,59.4-142.12,53.62-61.1-6.32-107.31-37.58-138.92-89.8C4.96,241.55-1.69,207.99.36,172.73,4.57,100.1,41.28,49.07,105.07,16.32,126.96,5.08,155.51-.67,181.46.06ZM12.53,178.68c1.75,13.93,2.11,28.2,5.48,41.72,15.66,62.72,55.67,103.21,116.94,122.03,61.94,19.02,130.82-3.53,169.4-55.39,41.86-56.26,47.96-117.4,18.73-180.88C292.33,39.35,216.7,2.45,145.82,17.44,80.17,31.33,14.72,91.09,12.53,178.68Z"/>
      <path class="cls-1" d="M207.1,139.63c-17.9,0-35.8.07-53.69-.02-14.11-.07-20.04-6.15-20.05-20.24,0-6.28-.02-12.56-.02-18.83,0-13,6.48-19.62,19.65-19.7,15.61-.09,31.23.07,46.84.07,20.37,0,40.75-.06,61.12-.02,13.68.03,20.25,6.68,20.28,20.36.01,6.66.01,13.32-.06,19.98-.12,11.34-6.68,18.19-18.09,18.31-18.66.19-37.32.05-55.98.05v.06ZM206.97,125.98c0-.09,0-.17,0-.26,18.27,0,36.54-.06,54.81.05,4.02.02,6-1.19,5.85-5.55-.23-6.65-.14-13.31-.02-19.96.07-3.8-1.41-5.57-5.36-5.56-36.73.03-73.46,0-110.19-.06-3.86,0-5.59,1.64-5.55,5.46.07,6.27.28,12.56-.05,18.82-.29,5.6,2.05,7.23,7.42,7.16,17.7-.25,35.4-.09,53.09-.09Z"/>
      <path class="cls-1" d="M207.24,211.85c-18.09,0-36.18.07-54.28-.02-13.29-.07-19.52-6.4-19.59-19.62-.04-6.47-.05-12.94-.05-19.41,0-12.79,6.3-19.28,19.29-19.36,26.66-.17,53.32-.16,79.98-.22,9.9-.02,19.81-.19,29.71.03,12.35.28,18.87,7.1,18.92,19.38.03,6.85,0,13.7-.09,20.55-.14,11.67-6.85,18.5-18.48,18.56-18.47.1-36.95.03-55.42.03v.09ZM207.2,166.98v-.05c-18.09,0-36.18.09-54.27-.06-4.58-.04-6.69,1.52-6.54,6.27.21,6.46.21,12.94.1,19.41-.07,4.19,1.83,5.67,5.9,5.66,36.56-.08,73.12-.08,109.69-.04,3.82,0,5.6-1.44,5.51-5.39-.13-5.7.02-11.42,0-17.12-.02-8.63-.04-8.66-8.41-8.67-17.33-.02-34.66,0-51.99,0Z"/>
      <path class="cls-1" d="M207.5,224.74c17.9,0,35.8-.04,53.7.01,13.28.03,19.97,6.79,20.02,20.09.02,6.66.08,13.32-.03,19.98-.18,11.24-7.54,18.68-18.67,18.7-36.75.07-73.5.08-110.25.03-12.03-.01-18.84-6.82-18.93-18.71-.05-7.23-.03-14.46.02-21.69.08-11.17,6.9-18.2,18.16-18.29,18.66-.14,37.32-.04,55.98-.04v-.08ZM207.24,269.84v-.08c17.69,0,35.38-.15,53.07.09,5.28.07,7.79-1.31,7.4-7.06-.41-6.05-.27-12.16-.06-18.24.15-4.4-1.56-6.11-6-6.1-36.52.09-73.04.08-109.57-.02-4.35-.01-5.66,2.02-5.61,5.93.07,6.08.15,12.17-.14,18.24-.26,5.36,1.73,7.42,7.27,7.34,17.88-.26,35.76-.1,53.64-.1Z"/>
      <path class="cls-1" d="M86.88,189.81c0,3.08,0,5.49,0,7.91,0,13.88-.08,27.77.01,41.65.04,6.23,1.6,7.69,7.85,7.79,5.33.08,10.66-.09,15.99-.04,4.6.05,7.96,1.94,7.81,7.01-.14,4.77-3.59,6.42-7.81,6.5-6.47.13-12.95.31-19.41-.02-10.4-.53-17.96-8.09-18-18.49-.16-39.56-.16-79.11,0-118.67.04-10.52,7.39-18.02,17.84-18.62,6.64-.38,13.32-.15,19.98-.03,4.39.08,7.46,2.14,7.41,6.84-.04,4.66-3.02,6.72-7.48,6.76-5.52.05-11.04.06-16.56.03-5.08-.03-7.73,2.05-7.68,7.51.14,15.21.15,30.43-.04,45.64-.05,3.89,1.47,4.9,5.04,4.78,6.27-.21,12.56-.07,18.84-.09,4.34-.02,7.66,1.5,7.88,6.29.23,5.11-3.2,7.09-7.7,7.19-7.75.18-15.52.05-24,.05Z"/>
    </g>
  </g>
</svg>
