<?xml version="1.0" encoding="UTF-8"?>
<svg id="Capa_2" data-name="Capa 2" xmlns="http://www.w3.org/2000/svg" viewBox="0 0 391.13 396.36">
  <defs>
    <style>
      .cls-1 {
        fill: #1f6b3d;
        stroke-width: 0px;
      }
    </style>
  </defs>
  <g id="Capa_1-2" data-name="Capa 1">
    <g>
      <path class="cls-1" d="M0,198.53C4.35,114.35,41.73,51.07,120.13,16.15c87.65-39.03,191.33-5.02,240.88,77.08,43.32,71.77,40.04,158.85-10.72,225.47-43.25,56.77-101.83,84-173.09,76.41-82.54-8.8-137.03-55.8-166.29-132.63C3.16,242.11-.07,220.69,0,198.53ZM336.86,312.54c59.28-73.41,53.41-185.84-22.15-252.99C239.89-6.93,126.36.42,59.67,77.14-7.45,154.35-.52,266.54,75.55,335.88c73.55,67.04,179.87,56.99,240.06-.03-3.32,1.42-5.67,2.5-8.08,3.44-25.57,10.03-55.03-1.01-66.72-25.29-1.6-3.32-3.39-4.13-6.75-4.12-42.97.11-85.94.07-128.91.11-16.16.01-28.06-11.35-28.1-27.34-.12-52.79-.17-105.58-.12-158.36.02-17.11,11.26-28.1,28.23-28.1,8.27,0,16.54,0,25.3,0,0-5.04-.03-9.34,0-13.63.04-4.98,2.32-7.89,6.24-8.06,4.05-.18,6.8,3,6.86,8.03.05,4.42,0,8.84,0,13.25h43.31c.25-.71.44-1.02.44-1.33.06-3.66.08-7.32.12-10.99.06-5.61,2.39-8.84,6.46-8.95,4.12-.12,6.58,3.1,6.61,8.73.03,4.12,0,8.24,0,12.58h44.08c0-4.64-.07-8.94.02-13.24.1-5.08,2.86-8.31,6.8-8.14,3.85.17,6.28,3.16,6.37,8.03.08,4.43.02,8.86.02,13.72,8.59,0,16.42.48,24.18-.1,17.5-1.3,29.84,12.1,29.57,29.28-.58,36.46-.11,72.94-.27,109.4-.02,3.68,1.24,5.48,4.3,7.36,15.27,9.36,24.08,23.02,26.14,40.9,1.19,10.29-.63,20.11-4.87,29.53ZM297.7,156.31H90.31c0,10.59,0,20.86,0,31.13.01,31.29-.02,62.58.06,93.87.02,9.64,4.88,14.89,13.57,14.89,41.95.01,83.9,0,125.85-.02,1.6,0,3.19,0,4.99,0-1.11-18.42,3.85-34.01,16.59-46.61,12.78-12.64,28.46-16.98,46.33-14.89v-78.37ZM130.41,110.08c-10.36,0-20.17-.35-29.93.14-5.1.26-8.99,4.22-9.54,8.96-.87,7.47-.23,15.12-.23,22.7h207.11c0-7.25.31-14.08-.1-20.87-.31-5.26-3.47-9.98-8.57-10.39-10.32-.83-20.75-.25-31.36-.25,0,3.16.11,6.16-.03,9.14-.18,4.16-2.59,6.64-6.63,6.59-4-.05-6.43-2.47-6.52-6.7-.06-3.09-.01-6.18-.01-9.37h-44.03c0,3.26,0,6.21,0,9.17-.01,4.17-2.17,6.59-6.24,6.99-3.78.38-6.68-2.6-6.85-6.87-.12-2.95-.02-5.91-.02-9.16h-43.94c0,3.59.25,6.77-.06,9.89-.39,3.82-2.83,6.15-6.68,6-3.73-.14-6.25-2.2-6.35-6.28-.07-3.12-.01-6.25-.01-9.7ZM328.6,289c.06-22.84-17.67-41.12-39.99-41.21-22.34-.1-40.81,18.52-40.81,41.14,0,22.44,17.84,40.52,40.06,40.59,22.38.07,40.68-18.13,40.75-40.51Z"/>
      <path class="cls-1" d="M244.68,214.97c-.66.91-1.75,2.95-3.33,4.47-5.04,4.84-10.15,9.61-15.46,14.14-2.38,2.02-2.92,4.09-2.25,6.96,1.62,6.95,3.05,13.95,4.63,20.92.82,3.61.94,7.01-2.49,9.42-3.32,2.34-6.5,1.51-9.77-.41-5.88-3.45-12-6.48-17.76-10.11-3.14-1.98-5.5-1.73-8.49.16-5.62,3.54-11.3,7.1-17.33,9.82-2.79,1.26-6.89,1.59-9.64.48-3.66-1.47-3.43-5.41-2.53-9.15,1.71-7.1,2.84-14.34,4.58-21.44.71-2.9-.1-4.59-2.18-6.43-5.23-4.63-10.53-9.23-15.28-14.32-1.77-1.9-3.46-5.59-2.76-7.63.8-2.34,4.07-4.82,6.67-5.38,7.12-1.55,14.44-2.33,21.72-3,3.17-.29,4.61-1.72,5.69-4.47,2.54-6.49,5.36-12.88,8.02-19.33,1.42-3.43,3.43-6.23,7.51-6.28,4.15-.05,6.01,2.74,7.4,6.26,2.51,6.33,5.49,12.48,7.81,18.87,1.26,3.47,3.24,4.92,6.79,5.25,6.95.64,13.87,1.57,20.81,2.4,5.02.6,7.82,3.33,7.65,8.78ZM224.84,217.62c-6.18-.86-11.39-1.84-16.64-2.22-4.09-.3-6.33-2.28-7.74-5.89-1.87-4.78-3.92-9.48-6.33-15.27-2.52,6.01-4.67,10.98-6.69,16.01-1.24,3.1-3.29,4.66-6.71,5.01-5.49.56-10.94,1.54-17.3,2.47,4.54,4.18,8.18,7.83,12.14,11.08,3.14,2.57,3.9,5.43,2.9,9.23-1.36,5.19-2.4,10.47-3.79,16.64,5.7-3.3,10.46-5.96,15.12-8.79,3.06-1.86,5.86-1.7,8.87.13,4.64,2.82,9.4,5.44,14.99,8.65-1.34-6.31-2.27-11.69-3.66-16.94-.93-3.53-.09-6.08,2.53-8.45,3.93-3.56,7.72-7.29,12.3-11.66Z"/>
      <path class="cls-1" d="M282.36,295.2c5.42-6.08,10.02-11.31,14.69-16.48,2-2.21,3.95-4.54,6.27-6.39,2.83-2.26,6.02-1.99,8.56.58,2.43,2.46,2.54,5.47.21,8.07-8.1,9.03-16.24,18.02-24.52,26.88-2.97,3.18-6.55,3.23-9.69.19-4.42-4.27-8.7-8.69-12.86-13.21-2.63-2.85-2.78-6.07.15-8.84,2.93-2.76,6.15-2.33,8.9.29,2.74,2.62,5.19,5.54,8.29,8.9Z"/>
    </g>
  </g>
</svg>
