<?xml version="1.0" encoding="UTF-8"?>
<svg id="Capa_2" data-name="Capa 2" xmlns="http://www.w3.org/2000/svg" viewBox="0 0 387.98 392.85">
  <defs>
    <style>
      .cls-1 {
        fill: #1f6b3d;
        stroke-width: 0px;
      }
    </style>
  </defs>
  <g id="Capa_1-2" data-name="Capa 1">
    <g>
      <path class="cls-1" d="M194.18,392.85C82.87,392.2.92,300.74,0,198.34-.97,87.72,85.3.72,194.17,0c104.95-.69,193.6,86.66,193.81,194.13.21,109.93-86.08,198.4-193.8,198.71ZM374.05,196.19c-1.07-102.55-81.6-182.79-182.37-181.73C92.16,15.5,12.31,97.83,14.11,199.37c1.72,97.28,81.25,181.53,185.11,178.88,95.25-2.43,174.37-82.18,174.82-182.06Z"/>
      <path class="cls-1" d="M117.37,81.02c4.1,2.17,8.2,3.48,11.17,6.08,6.67,5.83,12.66,6.61,21.24,2.81,7.3-3.23,11.39-6.7,11.87-14.55.16-2.61.98-5.24,1.86-7.73,2.07-5.9,6.23-9.55,12.6-9.64,12.16-.17,24.32-.2,36.47.11,6.56.17,11.09,4.54,12.87,11.35,1.46,5.58,1.34,12.47,4.7,16.4,3.26,3.81,10.16,4.36,15.27,6.76,2.96,1.39,5.06,1.21,7.62-.84,3.36-2.7,7.03-5.06,10.74-7.28,6.29-3.76,12.21-3.16,17.31,1.96,7.99,8.02,15.87,16.16,23.61,24.43,5.5,5.87,5.76,11.76,1.34,18.57-.09.14-.17.3-.3.4-11.61,9.8-5.62,20.29-1.1,30.64.41.93,1.9,1.68,3.03,1.96,4.36,1.08,8.78,1.91,13.16,2.89,8.1,1.81,12.19,6.47,12.3,14.64.16,11.16.13,22.32-.04,33.47-.11,7.09-3.76,11.44-10.67,13.2-3.71.94-7.43,2.07-11.21,2.38-5.13.41-7.69,3.02-8.55,7.8-.06.33-.1.7-.28.95-6.39,9.15-3.37,16.83,2.81,24.91,6.14,8.02,5.19,13-1.87,20.22-6.87,7.03-13.74,14.05-20.73,20.96-7.33,7.25-13.43,8.57-21.19,2.14-8.4-6.96-15.6-7.6-25.11-2.32-5.04,2.8-8.88,4.77-9.13,11-.13,3.12-1.07,6.22-1.78,9.3-1.54,6.73-6.54,11.2-13.39,11.32-11.99.21-23.99.21-35.98.02-6.69-.11-11.37-4.19-13.11-10.94-1.16-4.51-2.33-9.05-2.93-13.65-.41-3.2-1.95-4.66-4.79-5.41-1.28-.34-2.69-.67-3.71-1.44-8.86-6.7-16.4-4.47-24.66,1.96-8.55,6.65-13.59,5.62-21.48-2.13-7.48-7.35-14.8-14.87-22.13-22.38-4.76-4.88-5.45-9.83-2.41-15.95.22-.45.47-.88.73-1.31,2.93-4.96,7.79-9.74,8.25-14.91.45-5.03-3.46-10.54-5.79-15.68-.69-1.51-2.36-3.13-3.91-3.59-4.77-1.43-9.74-2.15-14.55-3.46-7.39-2.01-10.61-6.12-10.69-13.65-.12-10.99-.13-21.98-.05-32.97.06-7.66,4.32-12.78,11.91-14.5,4.22-.96,8.58-1.42,12.68-2.71,1.83-.58,3.69-2.38,4.66-4.11,1.61-2.87,2.04-6.44,3.8-9.19,3.18-4.97,2.54-9.06-1.19-13.33-2.06-2.36-3.61-5.18-5.29-7.86-3.52-5.62-3.21-11.83,1.29-16.54,8.16-8.55,16.4-17.05,24.96-25.2,2.47-2.35,6.14-3.44,9.74-5.36ZM117.36,96.67c-1.3.97-2.6,1.7-3.61,2.72-6.1,6.14-12.09,12.39-18.23,18.49-2.05,2.04-2.08,3.8-.49,6.11,3.11,4.52,6.41,8.99,8.84,13.87,1.14,2.28,1.24,5.75.41,8.21-2.49,7.38-5.82,14.48-8.5,21.8-1.32,3.62-3.29,6.02-7.14,6.81-5.22,1.06-10.39,2.37-15.63,3.29-3.26.57-4.45,2.17-4.39,5.42.14,8.66.19,17.32,0,25.97-.07,3.43,1.37,4.61,4.54,5.14,5.41.91,10.91,1.79,16.04,3.61,2.56.9,5.25,3.45,6.41,5.94,3.21,6.91,5.4,14.28,8.49,21.26,1.59,3.6,1.67,6.62-.48,9.84-2.95,4.43-6.02,8.81-8.62,13.44-.74,1.31-.78,4.12.11,5.07,6.35,6.82,12.92,13.45,19.73,19.81,1.06.99,4.09,1.01,5.53.23,4.38-2.36,8.53-5.2,12.57-8.12,3.85-2.78,7.35-2.7,11.58-.58,6.67,3.34,13.56,6.33,20.57,8.87,4.48,1.62,6.88,4.2,7.58,8.82.75,4.93,1.9,9.8,2.66,14.73.47,3.1,2.16,4.23,5.09,4.21,9.33-.07,18.66.09,27.97-.26,1.49-.06,3.76-2.04,4.2-3.55,1.42-4.94,2.22-10.06,3.16-15.13.8-4.34,3.31-6.92,7.4-8.58,7.38-3,14.66-6.28,21.87-9.68,3.36-1.59,6.24-1.61,9.32.58,4.21,2.98,8.66,5.61,12.86,8.6,2.58,1.84,4.52,2.04,6.89-.46,6.08-6.39,12.33-12.63,18.65-18.78,2.06-2,1.61-3.59.26-5.64-2.84-4.31-5.47-8.75-8.27-13.08-2.19-3.39-2.18-6.56-.48-10.32,3.07-6.81,5.75-13.81,8.2-20.87,1.3-3.73,3.46-5.85,7.27-6.62,5.22-1.06,10.48-2.03,15.55-3.6,1.51-.47,3.43-2.76,3.49-4.28.34-9.15.35-18.32.03-27.46-.05-1.49-2.04-3.74-3.56-4.2-5.08-1.52-10.36-2.41-15.57-3.48-3.59-.74-5.75-2.78-7.04-6.28-2.7-7.32-6.01-14.43-8.44-21.83-.86-2.63-.75-6.27.42-8.73,2.35-4.91,5.97-9.21,8.58-14.02.77-1.42.65-4.42-.35-5.52-6.17-6.76-12.6-13.29-19.24-19.59-1.08-1.02-4.08-1.26-5.45-.51-4.65,2.57-8.97,5.72-13.39,8.69-3.35,2.25-6.6,2.24-10.34.56-7.12-3.18-14.37-6.12-21.72-8.73-3.73-1.32-5.89-3.47-6.67-7.24-1.04-5.05-2.33-10.06-3.15-15.14-.58-3.54-2.43-4.72-5.79-4.68-8.83.09-17.65.08-26.48,0-2.96-.02-4.63,1-5.12,4.13-.77,4.93-1.95,9.79-2.75,14.72-.69,4.27-3.05,6.59-7.11,8.04-7.65,2.74-15.04,6.25-22.75,8.81-2.64.88-6.31.73-8.81-.44-4.47-2.09-8.4-5.34-12.59-8.06-1.23-.8-2.55-1.45-4.13-2.34Z"/>
      <path class="cls-1" d="M219.83,163.24c-11.49,0-22.99.1-34.47-.08-3.04-.05-4.59.89-6.17,3.58-8.5,14.52-27.98,14.33-36.24-.34-1.38-2.44-2.78-3.43-5.39-3.1-.82.1-1.66,0-2.5,0-5.8-.07-8.74-2.21-8.89-6.45-.17-4.71,3.07-7.64,9.15-7.33,4.17.22,6.34-1.18,8.59-4.74,8.39-13.3,27.24-12.8,35.15.85,1.68,2.9,3.36,3.81,6.56,3.79,22.65-.11,45.3-.1,67.95.08,2.48.02,5.7.64,7.22,2.25,1.47,1.57,2.28,5.29,1.41,7.13-.96,2.01-4.13,4.1-6.4,4.18-11.98.41-23.98.19-35.97.19ZM168.82,156.69c.07-4.39-3.51-8.27-7.6-8.25-4.19.02-7.76,3.79-7.72,8.15.04,4.14,3.44,7.52,7.62,7.61,4.06.08,7.63-3.41,7.7-7.51Z"/>
      <path class="cls-1" d="M169.6,246.16c11.81,0,23.63.13,35.43-.13,1.85-.04,4.4-1.4,5.38-2.94,9.94-15.58,28.1-15.24,37.35.76.65,1.13,2.37,1.89,3.74,2.28,1.39.39,2.98.03,4.47.12,4.38.28,7.03,2.84,6.97,6.84-.07,4.2-2.59,7.02-6.45,6.76-5.69-.39-8.54,1.9-11.82,6.43-8.36,11.59-26.8,10.02-33.52-2.56-1.66-3.1-3.45-3.72-6.53-3.71-22.96.1-45.92.09-68.87.02-2.1,0-5.03.05-6.09-1.19-1.7-1.98-3.08-5.08-2.92-7.61.22-3.55,3.36-5.01,6.92-5.01,11.98.01,23.96,0,35.93,0,0-.02,0-.04,0-.06ZM228.9,245.08c-4.3-.04-7.87,3.56-7.86,7.92,0,3.99,3.59,7.74,7.5,7.86,4.21.13,8.04-3.55,8.08-7.75.04-4.38-3.44-7.99-7.72-8.03Z"/>
      <path class="cls-1" d="M163.67,197.48c9.32,0,18.64-.06,27.95.04,2.73.03,4.37-.66,5.9-3.28,8.48-14.6,27.08-14.7,35.66-.22,1.58,2.67,3.17,3.71,6.21,3.58,5.15-.23,10.32-.17,15.47,0,5.31.17,8.02,2.64,8,6.91-.02,4.33-2.72,6.69-8.03,6.78-5.49.1-10.99-.15-16.47.19-1.56.09-3.67,1.3-4.46,2.63-9.22,15.44-27.87,15.36-37.13-.09-.88-1.47-3.65-2.54-5.56-2.56-18.97-.19-37.94-.15-56.91-.08-3.7.01-6.6-.97-7.75-4.8-1.45-4.84,1.88-8.85,7.65-8.92,9.82-.13,19.63-.03,29.45-.03v-.14ZM215.09,196.4c-4.15.16-7.56,4.05-7.4,8.42.16,4.24,3.57,7.51,7.72,7.4,4.37-.12,7.58-3.72,7.36-8.26-.21-4.19-3.78-7.72-7.67-7.57Z"/>
    </g>
  </g>
</svg>
