<?xml version="1.0" encoding="UTF-8"?>
<svg id="Capa_2" data-name="Capa 2" xmlns="http://www.w3.org/2000/svg" viewBox="0 0 208.96 90.25">
  <defs>
    <style>
      .cls-1 {
        fill: #1c7a42;
        stroke-width: 0px;
      }
    </style>
  </defs>
  <g id="Capa_1-2" data-name="Capa 1">
    <g>
      <path class="cls-1" d="M201.44,71.16c-6.3,9.87-15.05,16.41-26.75,18.49-8.86,1.57-17.28.04-25.16-4.31-5.5-3.04-10.1-7.12-13.88-12.14-1.03-1.36-1.02-1.71.06-3.05,3.03-3.77,4.99-8.07,6.28-12.69.05-.17.1-.34.15-.52.14-.51.46-.83.99-.87.55-.04.85.3,1.07.76.43.91.84,1.84,1.33,2.71,2.89,5.13,6.66,9.45,12.01,12.08,8.86,4.36,17.27,3.39,25.02-2.68,5.52-4.32,8.59-10.19,10.03-16.95,1.26-5.95,1.09-11.86-.94-17.63-2.72-7.75-7.67-13.52-15.36-16.69-5.66-2.33-11.33-2.01-16.88.39-7.8,3.36-12.76,9.36-15.62,17.23-1.39,3.85-1.92,7.87-2.31,11.92-1.07,10.94-5.37,20.41-12.88,28.44-3.24,3.46-6.78,6.54-10.9,8.91-8.87,5.1-18.4,6.62-28.44,5.09-7.95-1.21-15.01-4.56-21.46-9.29-2.99-2.19-5.5-4.88-8.15-7.43-13.94-13.37-27.86-26.77-41.77-40.17-.69-.67-1.29-1.43-1.93-2.15-.1.07-.19.13-.29.2,0,.22-.03.43-.03.65,0,18.46,0,36.93,0,55.4,0,2.14-.3,2.43-2.46,2.42-3.63,0-7.27,0-10.9,0-1.77,0-2.26-.46-2.26-2.21,0-19.61,0-39.22,0-58.83,0-1.63-.1-3.3.18-4.9.94-5.35,4.2-8.81,9.32-10.33,4.97-1.47,9.67-.67,13.72,2.7,1.79,1.49,3.39,3.21,5.05,4.84,10.19,10.02,20.38,20.04,30.57,30.06,4.56,4.49,9.06,9.03,13.66,13.47,5.72,5.51,12.45,9.12,20.42,9.96,12.1,1.27,21.42-3.49,28.11-13.51,2.84-4.26,4.3-9.08,4.94-14.14.38-3.02.55-6.08,1.09-9.07,2.33-12.8,8.52-23.22,19.4-30.57,7.41-5.01,15.67-7.21,24.61-6.7,9.67.55,17.81,4.55,24.6,11.33,8.44,8.42,12.69,18.71,13.22,30.56.46,10.47-1.79,20.31-7.46,29.19Z"/>
      <path class="cls-1" d="M131.11,18.58c-2.95,3.68-4.7,7.9-5.81,12.44-.15.61-.29,1.22-.43,1.83-.11.5-.34.89-.9.95-.56.06-.86-.29-1.08-.74-.82-1.67-1.52-3.41-2.48-4.99-3.81-6.22-9.22-10.29-16.48-11.6-5.94-1.07-11.52.18-16.67,3.27-5.73,3.43-9.42,8.45-11.32,14.83,0,0,0,0,0,0-.1.33.16.66.5.66h.14c7.2,0,14.4,0,21.61.01,1.35,0,1.82.48,1.82,1.82,0,4.15,0,8.3,0,12.45,0,1.15-.52,1.66-1.7,1.66-7.7,0-15.39,0-23.09,0h-.74c-.33,0-.57.3-.51.62.2,1.01.36,1.96.63,2.88.87,2.94,1.57,5.95,2.73,8.79.28.68.12.98-.53.59-.02-.01-.05-.03-.07-.05-2.01-1.69-4.08-3.33-5.98-5.14-3.58-3.4-7.05-6.9-10.59-10.34-.67-.65-1.24-1.15-1.27-1.76-.15-3.26-.17-6.5.29-9.73,1.52-10.92,6.25-20.15,14.61-27.43,6.12-5.33,13.26-8.49,21.31-9.28,14.96-1.47,26.9,4.09,35.95,16,.63.83.64,1.54.05,2.27Z"/>
    </g>
  </g>
</svg>