<?xml version="1.0" encoding="UTF-8"?>
<svg id="Capa_2" data-name="Capa 2" xmlns="http://www.w3.org/2000/svg" viewBox="0 0 344.92 230.55">
  <defs>
    <style>
      .cls-1 {
        fill: #000;
        stroke-width: 0px;
      }
    </style>
  </defs>
  <g id="Capa_1-2" data-name="Capa 1">
    <g>
      <path class="cls-1" d="M145.2,230.55c-21.29-.66-43.67-5.75-62.18-21.96-4.11-3.6-7.84-7.72-11.25-12-7.51-9.42-16.99-15.71-28.35-19.52-5.5-1.84-11.03-3.79-16.23-6.33C.83,157.9-7.84,127.53,7.74,102.7c2.73-4.35,5.9-8.5,9.39-12.26,7.17-7.72,12.17-16.49,15.08-26.63C45.65,17.09,91.01-3.84,130.66.58c10.64,1.19,21.19,4.11,31.46,7.27,12.69,3.91,25.5,5.75,38.73,6.32,13.06.56,26.25,1.5,39.04,4.01,15.98,3.14,28.6,12.65,37.64,26.11,7.89,11.76,18.23,20.02,31,25.76,9.32,4.19,17.77,9.76,24.49,17.68,18.77,22.15,14.91,53.99-8.54,71.25-11.67,8.59-24.99,12.3-39.08,13.58-22.05,2-40.86,10.28-56.62,26.2-22.18,22.42-50.1,31.16-83.58,31.79ZM126.89,11.32c-39.71.2-73.7,19.45-83.94,57.38-2.87,10.62-8.45,19.81-15.97,27.87-2.94,3.16-5.73,6.51-8.18,10.06-12.28,17.84-8.73,39.05,9.21,51.09,6.08,4.08,13.39,6.54,20.4,9.01,12.9,4.54,23.78,11.63,32.27,22.49,6.83,8.75,15.21,15.65,25.26,20.69,30.02,15.03,83.54,13.06,116.12-20.6,16.05-16.59,35.89-25.4,58.77-27.66,11.99-1.18,23.75-3.21,34.16-9.91,22.76-14.66,24.8-44.17,3.95-61.38-4.95-4.08-10.56-7.63-16.38-10.33-14.41-6.68-26.29-15.96-34.96-29.46-6.01-9.36-14.85-15.52-25.19-19.63-10.57-4.2-21.6-5.47-32.8-5.14-19.52.57-38.32-2.31-56.85-8.75-9.93-3.45-20.66-4.61-25.88-5.72Z"/>
      <path class="cls-1" d="M144.09,157.91c-16.41-.41-34.22-4.91-49.07-17.67-24.38-20.95-24.27-53.19.08-74.18,28.41-24.49,78.22-23.63,105.82,1.84,23.75,21.92,21.09,56.25-5.76,75.21-14.51,10.25-30.71,14.79-51.08,14.81ZM144.98,59.27c-13.13.14-27.42,4-40.09,13.41-19.92,14.81-22.33,40.19-5.18,56.58,23.56,22.52,67.74,23.51,92.23,2.07,19.3-16.9,18.49-42.16-1.78-57.94-12.6-9.81-27.05-13.84-45.18-14.11Z"/>
      <path class="cls-1" d="M102.3,96.34c1.22-2.75,1.87-4.84,2.99-6.63,7.57-12.12,19.26-17.21,32.86-18.82,3.35-.4,6.15.82,6.37,4.59.21,3.55-2.39,4.71-5.51,5.1-11.87,1.46-21.36,6.52-27.28,17.46-.75,1.39-3.66,2.55-5.3,2.27-1.55-.27-2.76-2.57-4.12-3.97Z"/>
    </g>
  </g>
</svg>