<?xml version="1.0" encoding="UTF-8"?>
<svg id="Capa_2" data-name="Capa 2" xmlns="http://www.w3.org/2000/svg" viewBox="0 0 358.23 232.66">
  <defs>
    <style>
      .cls-1 {
        fill: #000;
        stroke-width: 0px;
      }
    </style>
  </defs>
  <g id="Capa_1-2" data-name="Capa 1">
    <g>
      <path class="cls-1" d="M185.58,232.66c-42.87-1.56-95.26-11.81-144.93-34.25-11.6-5.24-22.28-12.07-30.22-22.36-9.54-12.37-13.23-26.15-8.13-41.24,1.7-5.04,4.61-10.17,8.3-13.96,26.28-26.92,52.2-54.25,79.59-80.02C125.39,7.72,168-5.24,215.75,1.9c27.55,4.12,48.44,18.73,58.54,46.03.4,1.09,1.02,2.21,1.03,3.32.12,7.58,4.95,9.18,11.38,10.51,16.59,3.42,32.12,9.57,45.81,19.96,31.59,23.98,29.95,62.14,16.98,86.25-12.71,23.62-33.96,37.42-57.91,47.48-30.23,12.68-62,17.35-106,17.21ZM34.26,109.44c.43.58.85,1.17,1.28,1.75,1.94-.34,3.88-.74,5.83-1.01,1.97-.28,3.96-.52,5.95-.63,25.63-1.41,47.71,8.14,68.66,21.74,12.66,8.23,25.25,16.89,38.83,23.31,22.51,10.64,43.15,6.01,60.66-11.58,2.82-2.83,5.56-5.74,8.24-8.69,11.08-12.18,23.01-23.71,32.94-36.76,11.92-15.66,12.91-33.6,4.7-51.47-8.26-17.99-23.54-27.98-42.1-32.19-37.81-8.57-72.92.09-104.55,21.14-13.84,9.21-25.48,21.79-37.74,33.25-14.45,13.49-28.49,27.41-42.7,41.15ZM278.12,71.29c-.29,1.33-.53,2.11-.61,2.91-1.71,15.69-8.74,28.74-19.52,40.05-11.25,11.8-22.12,23.97-33.54,35.61-22.35,22.8-50.26,27.57-78.91,13.13-9.75-4.92-18.91-11.11-28.01-17.22-14.98-10.05-30.2-19.57-48.06-23.55-6.71-1.5-13.66-1.91-20.5-2.82,6.79,3.58,13.75,5.79,20.31,8.86,14.31,6.7,26.33,16.76,38.18,27,18.39,15.88,38.08,29.66,61.44,37.27,31.26,10.19,63.12,11.1,95.14,4.68,23.59-4.73,45.65-13.24,63.95-29.61,25.04-22.39,24.25-55.5-2.02-76.36-13.87-11.01-30.03-16.82-47.86-19.95ZM302.53,197.75c-1.68,0-2.21-.15-2.6.02-21.55,9.21-44.22,13.19-67.47,14.2-31.48,1.36-61.66-4.02-89.83-18.6-17.41-9.01-32.33-21.52-47.41-33.88-9.09-7.46-19.06-13.86-28.81-20.49-1.74-1.18-4.46-1.85-6.5-1.48-5.21.94-10.4,2.29-15.4,4.05-10.68,3.76-12.6,11.33-4.37,19.27,4.83,4.66,10.76,8.32,16.61,11.72,4.7,2.73,10.09,4.26,15.02,6.64,1.11.53,1.58,2.39,2.34,3.64-1.26.45-2.8,1.62-3.74,1.25-12.28-4.74-24.59-9.58-33.93-19.38-10.31-10.81-7.8-22.21,5.98-28.01,2.8-1.18,5.69-2.17,8.54-3.25-.05-.66-.1-1.33-.15-1.99-7.04-.19-14.25-1.47-21.08-.36-15.12,2.45-21.54,15.8-15.2,29.74,5.1,11.21,14.41,18.08,24.74,23.78,22.33,12.33,46.57,19.46,71.18,25.39,43.89,10.58,88.17,15.13,133.1,7.54,20.27-3.43,39.77-9.23,58.99-19.8Z"/>
      <path class="cls-1" d="M132.2,66.8c-6.37.01-10.83-.21-12.86-4.63-2.08-4.52.21-8.47,3.32-11.71,8.33-8.68,18.77-12.94,30.63-13.58,3.87-.21,7.75.84,9.66,4.86,2,4.22.15,7.92-2.57,10.95-8.05,8.96-18.3,13.46-28.18,14.12ZM155.35,47.94c-10.23,3.78-20.47,7.56-31.48,11.64,8.39,4.51,25.63-1.82,31.48-11.64ZM156.06,42.95c-6.36-2.87-21.01,2.22-27.57,10.55,10-3.83,18.84-7.21,27.57-10.55Z"/>
      <path class="cls-1" d="M184.78,112.89c-2.81-1.92-6.54-3.26-8.2-5.9-2.24-3.57-.2-7.44,2.81-10.24,5.31-4.93,11.64-7.07,18.83-5.99,6.41.96,8.86,6.72,4.92,11.86-4.35,5.69-10.25,8.84-18.37,10.27ZM193.65,94.63c-3.4,1.96-7.33,4.07-11.05,6.52-.85.56-1.63,2.72-1.22,3.34.68,1.02,2.61,2.2,3.55,1.9,4.27-1.39,8.49-3.08,12.48-5.14.97-.5,1.57-2.96,1.26-4.25-.21-.84-2.38-1.2-5.01-2.36Z"/>
      <path class="cls-1" d="M290.78,135.74c-.67-.11-2.85-.24-4.89-.86-9.17-2.77-11.81-11.21-5.97-18.76,5.8-7.5,18.06-11.27,27.04-8.31,9.21,3.03,11.64,11.97,5.25,19.35-4.94,5.71-11.71,8.62-21.43,8.58ZM291.72,130.77c6.87-.43,12.17-2.08,16.07-6.7,4.05-4.8,2.56-9.61-3.43-11.49-6.91-2.18-16.88,1.39-20.74,7.41-2.24,3.51-1.35,7.47,2.4,9.21,2.05.95,4.4,1.23,5.69,1.57Z"/>
      <path class="cls-1" d="M267.82,159.24c1,.1,2.91-.19,4.25.56,2.19,1.21,5.06,2.77,5.67,4.79.6,1.97-.56,5.48-2.19,6.93-7.2,6.45-15.88,9.02-25.41,6.93-6.21-1.36-7.65-7.33-3.05-11.79,5.55-5.38,12.5-7.31,20.73-7.41ZM249.83,172.02c6.47,4.08,18.37.93,22.72-5.78-6.43-3.64-17.46-.96-22.72,5.78Z"/>
    </g>
  </g>
</svg>