<?xml version="1.0" encoding="UTF-8"?>
<svg id="Capa_2" data-name="Capa 2" xmlns="http://www.w3.org/2000/svg" viewBox="0 0 326.06 189.91">
  <defs>
    <style>
      .cls-1 {
        fill: #000;
        stroke-width: 0px;
      }
    </style>
  </defs>
  <g id="Capa_1-2" data-name="Capa 1">
    <path class="cls-1" d="M326.05,61.36c.11,9.19-2.29,15.29-6.85,20.06-12.06,12.63-24.39,25-36.79,37.29-20.58,20.38-41.29,40.64-62,60.89-2.6,2.55-5.44,4.89-8.38,7.05-4.23,3.1-8.89,4.09-14.12,2.53-35.89-10.67-71.79-21.32-107.72-31.83-23.38-6.84-46.91-13.21-70.19-20.37-5.48-1.69-10.96-4.95-15.17-8.86-6.28-5.83-6.37-13.17-.63-19.57,4.85-5.41,10.52-10.15,16.19-14.75C55.41,65.42,90.72,37.38,125.51,8.71,136.14-.05,147.18-1.72,159.92,1.56c49.1,12.67,98.24,25.18,147.35,37.83,12.16,3.13,18.82,11.95,18.79,21.97ZM306.05,53.02c-.28-.65-.56-1.3-.84-1.96-2.62-.92-5.19-2.03-7.86-2.72-45.57-11.68-91.12-23.4-136.76-34.8-5.48-1.37-11.87-2.45-17.01-.91-5.91,1.77-11.27,6.15-16.26,10.16-31.62,25.43-63.08,51.05-94.57,76.64-5.03,4.09-10.11,8.15-14.84,12.57-4.25,3.97-3.93,8.08.83,11.18,2.72,1.77,5.9,3.03,9.04,3.96,20.02,5.95,40.09,11.74,60.14,17.6,35.17,10.27,70.38,20.37,105.45,30.96,7.38,2.23,12.88.74,17.94-4.48.92-.96,1.92-1.85,2.88-2.77,18.71-18,37.5-35.92,56.09-54.04,12.86-12.54,25.53-25.28,38.11-38.1,3.74-3.81,6.03-8.51,5.26-14.86-1.12.86-1.79,1.26-2.32,1.8-26.55,27.71-56.26,51.81-86.42,75.37-15.7,12.26-33.36,18.92-53.44,15.51-14.68-2.49-29.28-5.76-43.67-9.61-29.13-7.8-58.09-16.22-87.12-24.4-2.87-.81-5.91-1.3-8.5-2.65-1.64-.86-2.6-3.03-3.86-4.62,1.52-.82,2.99-2.22,4.56-2.33,3.62-.26,7.42-.47,10.92.31,15.2,3.43,30.4,6.96,45.46,10.96,20.18,5.36,40.07,11.96,60.41,16.59,15.82,3.6,30.14-1.22,32.9-20.78.21-1.47.43-2.94.64-4.42,1.2-8.48,5.63-11.4,14.22-10.29,10.85,1.39,21.75,2.5,32.66,3.25,9.64.66,18.38-2.3,25.97-8.36,6.37-5.08,12.95-9.93,18.97-15.4,10.54-9.58,20.71-19.56,31.04-29.38ZM232.96,115.17c-8.13,0-15.39.11-22.66-.04-3.97-.09-7.93-.92-11.89-.81-1.44.04-3.82,1.61-4.09,2.85-1.98,9.08-3.99,18.04-12.27,24.54,11.71,1.56,39.25-12.89,50.91-26.54Z"/>
  </g>
</svg>