<?xml version="1.0" encoding="UTF-8"?>
<svg id="Capa_2" data-name="Capa 2" xmlns="http://www.w3.org/2000/svg" viewBox="0 0 324.48 216.01">
  <defs>
    <style>
      .cls-1 {
        fill: #000;
        stroke-width: 0px;
      }
    </style>
  </defs>
  <g id="Capa_1-2" data-name="Capa 1">
    <g>
      <path class="cls-1" d="M324.2,107.12c0,4.99-.34,10.01.06,14.98,1.92,23.99-8.94,41.61-27.31,55.57-21.61,16.43-46.28,26.13-72.55,31.68-55.61,11.74-110.24,8.36-163.19-13-19.92-8.03-38.16-19.03-51.15-36.92C3.63,150.56.24,140.6.2,129.6c-.04-12.98.52-25.99-.12-38.94-1.09-22.04,8.82-38.33,25.32-51.53,15.83-12.66,33.93-21.09,53.23-26.59,60.87-17.34,121.53-17.47,181.44,4.38,19.07,6.95,36.53,16.94,50.31,32.34,9.49,10.62,14.39,22.97,13.92,37.37-.22,6.82-.04,13.65-.04,20.47-.02,0-.04,0-.07,0ZM157.56,152.91c35.07.09,63.81-3.64,91.62-13.21,18.23-6.28,35.44-14.42,49.3-28.31,17.34-17.37,17.67-37.85.86-55.69-9.62-10.21-21.36-17.43-34.05-23.12-22.34-10.03-45.84-15.68-70.17-18.19-41.1-4.24-81.4-.78-120.63,12.5-18.27,6.18-35.3,14.79-49,28.82-16.09,16.46-16.51,35.77-1.26,52.98,1.54,1.74,3.04,3.66,4.94,4.92,9.81,6.48,19.19,13.94,29.74,18.91,32.97,15.55,68.34,20.04,98.66,20.39ZM311.51,116.05c-5.51,4.79-10.74,9.95-16.57,14.31-16.63,12.42-35.6,19.99-55.48,25.32-36.12,9.7-72.9,11.91-109.93,7.73-43.41-4.9-84.7-15.49-116.57-48.39-3.63,26.48,10.16,50.48,34.89,60.68,4.17-3.87,6.87-3.67,8.86,1.51,1.5,3.91,4.16,5.81,7.64,7.17,6.19,2.43,12.35,4.96,18.66,7.02,1.63.53,4.01-.07,5.65-.91,3.19-1.63,6.21-1.54,7.91,1.4,2.44,4.22,6.21,5.16,10.37,5.78,10.19,1.52,20.35,3.4,30.6,4.41,33.79,3.36,67.13.78,99.8-8.74,2.4-.7,4.17-3.36,6.45-4.77,2.04-1.26,5.39-3.48,6.38-2.77,3.16,2.26,5.64.99,8.26-.19,4.54-2.04,8.95-4.39,13.48-6.46,3.66-1.67,6.05-3.99,7.19-8.17,1.56-5.74,4.73-6.31,8.97-2.25,18.99-12.73,27.14-30.26,23.46-52.68Z"/>
      <path class="cls-1" d="M115.79,129.87c-2.22-1.76-4.97-2.85-5.35-4.5-.46-1.96.43-5.08,1.89-6.52,10.32-10.14,20.88-20.04,31.49-29.89,18.41-17.09,36.88-34.11,55.39-51.09,1.79-1.64,3.97-3.71,6.11-3.89,2.38-.2,5.83.88,7.11,2.64.93,1.29-.13,5.32-1.62,6.85-5.92,6.06-12.39,11.58-18.6,17.35-23.04,21.39-46.04,42.82-69.13,64.16-1.97,1.82-4.5,3.04-7.28,4.88Z"/>
      <path class="cls-1" d="M169.17,134.53c-2.1-1.86-4.72-3.09-5.07-4.79-.41-1.99.51-5.03,1.97-6.5,5.61-5.66,11.64-10.91,17.57-16.27,20.6-18.62,41.22-37.23,61.85-55.83,1.35-1.22,2.72-2.5,4.29-3.4,3.14-1.81,6.56-2.24,9.06.8,2.68,3.26,1.03,6.11-1.78,8.6-9.7,8.61-19.35,17.27-28.99,25.95-16.92,15.25-33.79,30.57-50.77,45.77-2.27,2.03-5.03,3.52-8.14,5.66Z"/>
      <path class="cls-1" d="M70.81,117.57c-1.98-1.52-4.45-2.48-4.99-4.09-.61-1.83-.17-4.8,1.03-6.27,2.82-3.45,6.35-6.33,9.63-9.39,22.01-20.55,44.01-41.09,66.05-61.61,1.82-1.7,3.73-3.35,5.79-4.73,3.23-2.16,6.7-2.57,9.39.74,2.79,3.45.61,6.15-2.01,8.57-14.06,12.97-28.15,25.91-42.17,38.92-12.07,11.2-24.03,22.52-36.14,33.67-1.74,1.61-4.05,2.6-6.58,4.18Z"/>
      <path class="cls-1" d="M45.09,88.45c-1.97-1.47-4.99-2.61-5.18-4.11-.3-2.33.59-5.72,2.27-7.25,10.41-9.52,21.18-18.66,31.84-27.9,3.51-3.04,7.01-6.12,10.65-9,3.97-3.14,8.4-3.06,10.57.18,2.57,3.86.25,6.43-2.6,8.87-13.73,11.79-27.39,23.66-41.15,35.41-1.7,1.45-3.88,2.33-6.4,3.8Z"/>
      <path class="cls-1" d="M235.58,125.32c-1.56-1.28-4.12-2.35-4.44-3.88-.42-2.04.2-5.13,1.6-6.55,4.78-4.83,10.09-9.14,15.22-13.63,8.26-7.22,16.5-14.46,24.82-21.61,1.62-1.39,3.53-3.33,5.35-3.37,2.46-.05,5.85.81,7.14,2.54,1,1.35.27,5.61-1.18,6.91-14.12,12.62-28.53,24.92-42.95,37.2-1.3,1.1-3.25,1.43-5.55,2.39Z"/>
    </g>
  </g>
</svg>