<?xml version="1.0" encoding="UTF-8"?>
<svg id="Capa_2" data-name="Capa 2" xmlns="http://www.w3.org/2000/svg" viewBox="0 0 354.7 233.96">
  <defs>
    <style>
      .cls-1 {
        fill: #000;
        stroke-width: 0px;
      }
    </style>
  </defs>
  <g id="Capa_1-2" data-name="Capa 1">
    <path class="cls-1" d="M56.95,160.93c-1.83-5.52-4.09-10.15-4.81-15.02-1.06-7.16,2.92-12.32,9.72-14.97,1.39-.54,2.34-2.21,3.5-3.36-.35-.48-.7-.97-1.04-1.45-10.7,1.08-21.54,1.45-32.07,3.42-12.24,2.29-20.99-2.67-28.65-11.08-4.81-5.28-4.88-29.37.3-34.18,2.74-2.55,6.72-4.61,10.41-5.17,34.36-5.26,68.79-10.16,103.19-15.16.31-.05.61-.2,1.85-.61-11.2-4.65-21.64-9.21-32.27-13.31-6.16-2.38-10.97-6.13-14.58-11.55-2.93-4.41-3.33-8.95-.59-13.62.25-.43.49-.87.73-1.31,8.89-16.33,14.15-18.55,31.8-12.86,20.09,6.48,40.09,13.26,60.21,19.66,2,.64,4.95.26,6.77-.81,14.77-8.68,29.3-17.78,44.06-26.47,7.91-4.66,13.02-4.02,20.1,1.79,3.34,2.75,6.58,5.64,9.63,8.7,6.48,6.49,4.97,12.21-2.75,16.64-3.28,1.88-4.83,6.78-6.31,10.8,3.09-1.36,6.08-3.02,9.28-4,3.1-.95,4.76.91,3.5,3.78-1.57,3.55-3.93,6.74-5.98,10.13.77-.16,1.86-.31,2.92-.6,19.09-5.21,38.15-10.49,57.25-15.62,12.48-3.35,19.46-.07,25.65,11.75,5.54,10.57,5.14,16.88-2.07,22.83-2.49,2.06-5.71,3.36-8.77,4.58-7.18,2.87-14.45,5.48-22.73,8.58,15.82,6.12,30.56,11.73,45.2,17.56,3.18,1.27,6.49,2.86,8.96,5.15,5.53,5.15,7.51,26.7,2.29,32.04-6.79,6.94-14.9,12.6-25.66,10.05-8.89-2.11-17.69-4.59-26.54-6.89-.92-.24-1.89-.33-3.11.16,7.76,4.73,15.52,9.47,23.29,14.18,3.56,2.16,7.63,3.76,10.57,6.55,2.97,2.82,6,6.53,6.92,10.36,1.46,6.07,1.37,12.54,1.61,18.86.19,4.87-2.06,8.64-6.39,11.05-4.65,2.59-9.3,5.18-13.94,7.79-5.99,3.37-12.11,3.64-18.07.18-31.79-18.43-63.55-36.92-95.24-55.52-2.43-1.42-4.2-1.7-6.73-.49-6.42,3.08-13,5.86-20.6,9.24,2.55,1.32,4.19,2.24,5.89,3.04,14.32,6.67,28.62,13.39,43,19.92,6.84,3.11,10.27,8.06,9.96,15.65-.16,3.99-.14,8,.09,11.98.3,5.38-1.95,9.3-6.3,12.2-2.49,1.66-5.03,3.26-7.48,4.98-6.01,4.21-12.2,4.46-18.86,1.51-28.44-12.56-56.96-24.95-85.38-37.57-3.34-1.48-6.02-1.6-9.33.06-16.96,8.47-34.03,16.7-51.05,25.04-7.37,3.61-12.13,2.98-18.15-2.59-2.2-2.04-4.32-4.15-6.48-6.23-.24-.23-.48-.47-.71-.7-6.19-6.35-3.52-14.45-4.32-21.87-.92-8.58,2.84-14.17,10.64-17.75,6.33-2.9,12.31-6.56,17.66-9.45ZM190.23,144.72c-7.02-5.55-7.04-5.59-11.12-3.71-40.17,18.48-80.35,36.94-120.44,55.56-1.93.9-3.11,3.36-4.72,5.02-.91.93-1.98,1.7-2.97,2.55-.79-1.02-2.04-1.94-2.29-3.08-1.05-4.92-4.9-7.16-8.18-10.33-2.42,8.14,1.47,12.97,6.6,17.53,2.36,2.09,4.14,2.38,6.98.98,16.7-8.22,33.64-15.97,50.2-24.44,7.44-3.81,12.94-4.58,21.47-.28,25.8,12.98,52.79,23.58,79.04,35.7,6.29,2.9,10.96,2.2,15.84-1.75,1.73-1.4,4.38-2.87,4.66-4.61.68-4.3.22-8.79.22-14.28-3.91,2.3-6.68,4.04-9.57,5.57-1.25.66-3.04,1.59-4.07,1.16-9.38-3.85-18.65-7.96-27.91-12.07-.56-.25-1.26-1.51-1.08-1.87.4-.76,1.38-1.76,2.05-1.71,1.61.13,3.23.69,4.76,1.3,5.86,2.34,11.79,4.57,17.5,7.24,5.64,2.63,9.57,0,14.22-3.58-2.32-1.2-4.02-2.17-5.8-2.99-13.74-6.32-27.72-12.17-41.16-19.06-7.53-3.86-14.08-5.44-21.6-.37-3.51,2.37-11.96.04-15.53-3.69,17.59-8.24,34.99-16.39,52.9-24.78ZM342.35,123.61c.61-10.23.44-10.58-9.53-14.67-7.07-2.9-14.14-5.83-21.33-8.42-30.02-10.78-60.07-21.46-90.14-32.09-1.77-.62-4.33-1.41-5.6-.62-7.72,4.74-15.18,9.92-23.37,15.38,2.04.77,3.21,1.29,4.42,1.65,28.19,8.35,56.4,16.69,84.59,25.03,9.24,2.73,18.5,5.39,27.68,8.31,1.1.35,1.74,2.17,2.59,3.31-1.28.35-2.53.8-3.83.99-.59.08-1.25-.39-1.88-.58-27.15-7.81-54.3-15.61-81.45-23.39-1.23-.35-2.52-.48-3.79-.71-.12.43-.24.86-.36,1.29,12.28,6.17,24.05,13.9,36.96,18.16,22.2,7.34,45.16,12.39,67.71,18.7,5.09,1.42,8.99.06,12.54-2.4-.59-2.03-2.01-4.33-1.38-5.32,1.13-1.77,3.5-2.75,6.16-4.63ZM158.95,106.01c1.44.82,2.24,1.32,3.07,1.75,21.36,11.2,42.78,22.27,64.06,33.61,23.34,12.44,46.53,25.15,69.85,37.63,2.22,1.19,5.49,2.79,7.27,1.99,6.83-3.1,13.26-7.1,20.76-11.28-16.27-9.51-31.13-18.71-46.45-27.05-30.52-16.61-61.29-32.77-92.02-49.01-1.88-.99-4.96-2.1-6.35-1.26-6.78,4.08-13.17,8.8-20.19,13.63ZM78.06,107.95c4.32,2.41,7.86,3.97,10.93,6.19,5.41,3.9,9.83,3.04,15.26-.62,42.2-28.4,84.61-56.49,126.95-84.7,2.3-1.53,4.5-3.23,7.4-5.33-3.37-3.03-6.36-5.38-8.94-8.11-3.4-3.61-6.46-3.75-10.9-1.28-39.15,21.8-75.85,47.36-112.49,73-9.36,6.55-18.39,13.56-28.21,20.84ZM177.66,135.95c-5.48-3.66-10.44-6.7-15.07-10.18-2.85-2.15-5.18-2.4-8.54-.98-37.66,16.02-73.68,35.27-109.37,55.19-1.36.76-2.51,1.91-3.94,3.03,2.4,2.65,4.61,4.71,6.35,7.11,2.94,4.06,6.01,3.93,10.27,1.82,15.33-7.59,30.78-14.94,46.29-22.12,24.37-11.29,48.84-22.37,74-33.87ZM231.85,34.46c-1.86,1.09-3,1.69-4.06,2.4-41.36,27.61-82.75,55.19-124.03,82.92-4.54,3.05-8.55,3.83-13.32.84-4.72-2.96-9.66-5.58-14.63-8.41-1.45,15.98-.95,16.93,12.34,23.9.59.31,1.21.57,1.75.95,4.04,2.83,7.52,2.02,11.27-.98,38.39-30.68,79.23-57.91,120.29-84.81,6.38-4.18,7.99-9.89,10.38-16.82ZM100.09,78.53c-.09-.28-.18-.56-.27-.84-3.96.43-7.93.72-11.86,1.32-23.83,3.64-47.67,7.27-71.46,11.18-1.76.29-4.32,2.48-4.55,4.07-.63,4.36-.22,8.87-.22,13.61,1.46,0,2.43.11,3.37-.02,15.99-2.13,31.98-4.22,47.95-6.48,3.21-.45,6.89-.74,9.41-2.47,9.42-6.48,18.45-13.53,27.63-20.36ZM157.23,39.39c-21.4-6.86-41.83-13.51-62.36-19.84-1.97-.61-5.31.04-6.7,1.42-2.59,2.56-4.21,6.1-5.95,8.79,2.94,1.07,5.25,1.91,7.56,2.74-1.18,1.3-2.36,2.61-3.82,4.22,1.2.79,2.43,1.95,3.89,2.51,13.47,5.18,26.96,10.31,40.5,15.3,1.4.52,3.57.68,4.7-.06,7.2-4.65,14.2-9.6,22.18-15.08ZM241.77,62.67c.05.33.1.65.15.98,11.25,3.99,22.5,8.02,33.78,11.94,1.18.41,2.73.58,3.87.19,12.55-4.33,25.09-8.69,37.51-13.37,1.68-.63,3.62-2.97,3.82-4.7.78-6.75-7.88-14.06-14.33-12.39-15.59,4.03-31.16,8.12-46.72,12.25-6.05,1.61-12.05,3.4-18.08,5.1ZM190.13,128.66c10.41,11.33,95.15,62.39,113.01,68.69-1.92-5.68-3.58-10.57-9.32-13.6-31.61-16.72-63.04-33.76-94.55-50.66-2.98-1.6-6.09-2.95-9.13-4.42ZM65.25,105.94c-17.13,2.3-33.5,4.49-49.87,6.69-.12.46-.24.93-.36,1.39,3.13,1.62,6.32,4.72,9.37,4.59,13.05-.57,26.06-2.09,39.11-3.26.59-3.17,1.09-5.89,1.75-9.41ZM310.25,200.81c5.28-2.92,11.01-6.05,16.69-9.28.42-.24.68-1.17.63-1.75-.38-5.04-.85-10.08-1.36-15.84-3.85,2.28-6.8,4.08-9.79,5.79q-12.05,6.92-7.53,19.91c.05.14.24.22,1.35,1.17ZM65.08,135.15c-6.42,2.62-7.53,7.35-7.2,14.14.2,4.08,4.6,8.29,7.04,7.1,6.16-3.01,12.16-6.36,18.17-9.55-6.14-3.98-11.93-7.74-18.01-11.69Z"/>
  </g>
</svg>