<?xml version="1.0" encoding="UTF-8"?>
<svg id="Capa_2" data-name="Capa 2" xmlns="http://www.w3.org/2000/svg" viewBox="0 0 385.81 241.47">
  <defs>
    <style>
      .cls-1 {
        fill: #000;
        stroke-width: 0px;
      }
    </style>
  </defs>
  <g id="Capa_1-2" data-name="Capa 1">
    <g>
      <path class="cls-1" d="M385.49,84.1c1.66,9.3-3.22,16.95-10.93,24.24-27.22,25.73-53.96,51.97-80.89,78.01-6.13,5.92-9.78,5.75-15.11-.7-6.72-8.14-24.92-7.05-30.63,1.84-2.95,4.59-1.99,9.59,3.7,12.56,6.3,3.29,7.97,8.23,6.94,14.41-.45,2.71-1.89,5.69-3.8,7.63-3.96,4.01-8.64,7.3-12.84,11.1-9.64,8.71-20.74,10.16-32.58,6.13-25.65-8.73-51.24-17.66-76.78-26.72-39.49-14.01-78.93-28.16-118.37-42.3-15.1-5.41-19.14-25.58-7.31-36.63,5.47-5.11,11.3-9.84,16.8-14.93,3.61-3.34,6.96-3.59,11.18-.92,8.07,5.11,18.46,4.18,25.06-1.76,4.8-4.32,4.69-8.91-.33-12.96-4.7-3.8-4.88-11.07.02-15.04,21.33-17.29,42.56-34.73,64.26-51.55,14.72-11.41,30.21-21.84,45.25-32.84,5.14-3.76,10.62-4.55,16.54-2.78,14.66,4.37,29.33,8.75,43.94,13.29,7.39,2.29,8.59,9.15,2.7,14.37-5.52,4.9-4.61,9.86,2.27,12.32,10.16,3.63,21.5-.41,26.62-9.64,2.53-4.57,6.37-4.93,10.71-3.63,11.47,3.43,22.93,6.92,34.37,10.46,20.65,6.39,41.29,12.82,61.92,19.26,14.87,4.64,17.55,8.57,17.28,26.79ZM123.68,186.62c2.01.49,3.77.77,5.43,1.35,6.28,2.18,12.53,4.46,18.8,6.69,21.62,7.71,43.23,15.41,64.85,23.11,5.41,1.93,10.94,2.43,15.77-1.06,4.4-3.18,8.28-7.07,12.35-10.61-9.16-13.23-6.02-26.31,8.22-32.89,13.06-6.02,25.84-5.39,37.59,4.48,11.75-11.39,23.46-22.74,35.17-34.08,16.26-15.76,32.5-31.54,48.81-47.24,2.91-2.8,4.64-5.68,2.88-10.13-12.75,12.16-25.19,23.93-37.52,35.81-11.03,10.63-21.89,21.43-32.96,32.01-.94.9-2.97.67-4.49.96.29-1.56.38-3.19.93-4.65.32-.84,1.39-1.38,2.11-2.07,23.08-22.11,46.19-44.2,69.24-66.35,5.63-5.41,4.39-10.4-3.11-12.84-6.95-2.26-13.93-4.47-20.92-6.62-24.47-7.53-48.94-15.08-73.47-22.43-1.54-.46-4.25.19-5.32,1.34-9.47,10.12-21.14,13-34.17,10.05-15.26-3.46-19.75-13.93-12.24-27.98-12.62-3.76-25.19-7.37-37.66-11.31-3.54-1.12-6.23-.84-9.23,1.4-25.49,18.99-51.18,37.71-76.55,56.86-10.33,7.8-19.99,16.48-29.92,24.72,9.32,13.44,6.76,25.32-6.81,32.37-8.99,4.67-18.35,5.41-27.99,1.71-1.58-.6-4.18-.83-5.29.06-4.81,3.83-9.38,7.99-13.76,12.3-3.53,3.47-3.09,4.91,1.51,6.53,9.57,3.37,19.17,6.64,28.74,10,19.92,7,39.85,14,59.72,21.14,1.42.51,2.42,2.19,3.61,3.33-1.77.44-3.56,1.31-5.3,1.2-1.93-.12-3.81-1.11-5.69-1.78-13.32-4.75-26.61-9.56-39.94-14.28-14.82-5.24-29.66-10.41-44.9-15.76-.29,5.68,3.52,6.84,7.07,8.11,25.82,9.27,51.63,18.55,77.48,27.74,38.53,13.7,77.09,27.35,115.65,40.97,6.4,2.26,13.02,2.48,18.73-1.4,5.34-3.63,10.09-8.15,14.88-12.52.78-.72.41-2.69.58-4.08-1.27.1-2.88-.25-3.75.4-3.06,2.29-5.92,4.86-8.74,7.44-5.34,4.89-11.61,6.55-18.5,4.79-5.46-1.39-10.77-3.39-16.09-5.27-23.83-8.43-47.65-16.91-71.45-25.41-2.4-.86-5.54-1.24-4.35-6.07Z"/>
      <path class="cls-1" d="M137,131.88c6.87.05,13.18,1.81,18.47,6.35,7.91,6.79,8.38,17.12,1.22,24.68-9.5,10.03-28.36,10.96-38.84,1.91-8.22-7.1-8.59-17.81-.87-25.43,4.96-4.9,12.03-7.55,20.02-7.52ZM136.32,162.15c3.89-1.52,7.78-2.5,11.08-4.47,5.26-3.14,5.2-8.44.31-12.12-6.39-4.82-17.29-4.45-23.2.78-3.93,3.48-3.91,8.59.58,11.28,3.3,1.98,7.2,2.95,11.23,4.53Z"/>
      <path class="cls-1" d="M281.73,77.66c6.02,2.26,11.7,3.43,16.3,6.32,9.69,6.09,9.78,18.11.8,25.17-8.95,7.04-22.61,7.8-32.39,1.79-10.13-6.23-11.38-18.71-1.79-25.74,4.85-3.56,11.22-5.04,17.08-7.54ZM280.97,105.78c2.85-.77,6-1.02,8.44-2.47,2.19-1.3,5.14-4.1,4.95-5.94-.24-2.3-2.99-5.05-5.34-6.22-2.65-1.31-6.12-1.66-9.15-1.39-6.73.59-11.21,4.19-11.06,8.06.16,4.11,5.26,7.27,12.16,7.96Z"/>
      <path class="cls-1" d="M162.59,95.27c-4.91-1.79-10.27-2.85-14.63-5.53-9.66-5.93-9.66-18.32-.51-25.08,8.61-6.36,23.12-6.65,32.08-.64,8.38,5.63,9.37,16.1,2.1,23.13-5.17,5-11.53,7.05-19.04,8.12ZM163.8,84.88c2.68-.95,5.98-1.62,8.73-3.22,4.93-2.87,4.65-7.25-.48-9.79-5.55-2.75-11.3-2.7-16.63.43-1.76,1.04-3.96,3.54-3.77,5.11.24,1.93,2.47,4.06,4.38,5.22,2.02,1.22,4.67,1.41,7.78,2.25Z"/>
      <path class="cls-1" d="M220.96,126.93c8.55,0,14.28,4.06,14.64,10.38.35,6.15-5.99,11.59-14.02,12.03-9.04.5-16.24-4.22-16.46-10.79-.22-6.56,6.68-11.62,15.85-11.62ZM227.17,138.01c-4.97-2.29-8.55-3.12-12.2.62,4.02,3.6,7.54,2.82,12.2-.62Z"/>
    </g>
  </g>
</svg>