<?xml version="1.0" encoding="UTF-8"?>
<svg id="Capa_2" data-name="Capa 2" xmlns="http://www.w3.org/2000/svg" viewBox="0 0 380.79 303.97">
  <defs>
    <style>
      .cls-1 {
        fill: #000;
        stroke-width: 0px;
      }
    </style>
  </defs>
  <g id="Capa_1-2" data-name="Capa 1">
    <g>
      <path class="cls-1" d="M327.66,57.89c4.31,1.51,8.16,2.23,11.36,4.08,11.51,6.68,22.87,13.61,34.13,20.7,8.69,5.46,10.01,15.89,3.74,24.21-6.1,8.09-12.33,16.14-17.63,24.75-9.05,14.7-21.49,25.17-37.81,30.07-19.99,6-33.7,18.21-42.75,36.83-9.62,19.81-26.64,30.69-47.61,35.28-19.72,4.32-33.82,15.12-43.25,32.92-9.32,17.6-25.08,28.07-42.81,35.81-5.91,2.58-11.68,1.58-16.91-2.45-12.65-9.76-25.4-19.38-38.04-29.14-8.32-6.42-8.57-17.14-.47-23.97,3.42-2.89,7.2-5.37,10.91-7.9,9.84-6.69,17.54-15.25,22.85-25.92,10.21-20.51,26.96-32.46,49.05-37.22,20.31-4.38,35.94-14.5,45.49-33.73,8.16-16.42,22.56-25.79,39.72-31.16,10.84-3.39,21.75-6.76,29.98-15.08,4.53-4.58,8.21-9.99,12.41-14.92,5.15-6.05,10.01-12.45,15.83-17.79,3.05-2.8,7.87-3.67,11.84-5.39ZM116.99,275.78c6.58,5.24,12.43,10.11,18.57,14.59,1.29.95,3.96,1.18,5.44.52,15.98-7.1,29.68-16.72,38.11-32.87,9.88-18.95,25.76-30.48,46.61-35.16,18.89-4.25,34.67-13.09,43.23-31.28,9.75-20.74,25.6-33.87,47.28-40.6,12.26-3.81,22.38-10.84,29.86-21.44,7.09-10.04,14.17-20.07,21.35-30.04,2.04-2.84,1.56-4.82-1.33-6.55-3.71-2.22-7.27-4.72-11.12-6.66-1.2-.61-3.76-.4-4.62.49-6.68,6.89-13.72,13.56-19.44,21.21-6.65,8.89-13.31,17.57-23.15,23-6.67,3.68-13.6,7-20.68,9.82-14.43,5.74-26.41,14.48-33.58,28.37-10.67,20.67-27.79,32.71-49.62,38.56-18.51,4.96-33.37,14.41-43.18,31.29-8.1,13.95-20.24,23.62-34.31,31.1-3.02,1.6-5.87,3.52-9.41,5.65ZM110.01,270.74c4.52-2.65,8.58-5.23,12.81-7.48,12.61-6.7,22.95-15.79,30.52-27.99,2.36-3.81,4.99-7.47,7.8-10.97,10.71-13.34,25.44-19.87,41.43-24.31,18.97-5.26,33.75-15.79,43.22-33.55,3.16-5.93,7.51-11.41,12.09-16.37,8.81-9.53,20.58-14.4,32.42-18.98,11.23-4.34,21.31-10.49,28.4-20.36,7.87-10.97,15.44-22.1,27.52-30.22-4.78-2.87-8.91-5.28-12.96-7.81-4.54-2.84-8.74-2.21-12.08,1.66-4.55,5.27-9.06,10.64-12.95,16.4-7.95,11.76-17.97,20.92-31.22,26.22-6.47,2.59-13.15,4.65-19.72,6.99-13.8,4.91-24.15,13.7-30.57,26.99-1.23,2.53-2.64,5-4.21,7.34-10.93,16.36-27.01,24.56-45.67,28.65-19.87,4.35-34.85,15.04-43.79,33.66-5,10.42-12.49,18.77-21.96,25.37-4.09,2.86-8.18,5.71-12.21,8.66-3.73,2.73-3.9,4.58-.41,7.42,3.85,3.14,7.94,5.97,11.55,8.66Z"/>
      <path class="cls-1" d="M55.26,237.81c-3.1-1.05-6.61-1.5-9.22-3.26-12.8-8.66-25.69-17.26-37.92-26.68-11.27-8.68-10.75-20.57,1.28-28.26,15.44-9.87,26.9-22.61,35.19-39.07,11.07-21.97,31.08-31.96,54.33-36.36,19.09-3.61,33.91-13.02,43.03-30.6,7.37-14.2,19.07-23.57,34.17-28.03,16.49-4.86,29.16-13.99,37.76-28.92,1.97-3.42,4.67-6.49,7.42-9.36,7.28-7.58,16.05-9.36,25.48-4.69,14.13,7,28.09,14.36,42.02,21.76,6.62,3.52,9.41,11.4,5.87,18.55-11.34,22.92-24,44.49-50.49,53.58-15.39,5.28-26.1,16.27-33.48,31.06-9.98,19.98-27.56,30.31-48.67,35.64-8.82,2.22-17.72,4.56-26.06,8.09-10.68,4.52-19.07,12.4-24.23,22.86-10.11,20.52-27.41,32.44-47.54,41.24-1.51.66-3.13,1.15-4.74,1.51-1.29.29-2.64.27-3.97.38-.07.19-.15.38-.22.57ZM33.5,211.54c6.22,4.18,11.65,8.3,17.56,11.54,2.37,1.3,6.24,1.7,8.69.71,17.9-7.25,32.52-18.15,41.63-36.04,7.25-14.25,19.16-24.24,34.29-29.76,6.83-2.49,13.98-4.2,21.09-5.84,19.78-4.58,35.76-14.08,44.77-33.19,1.62-3.44,3.83-6.62,5.99-9.78,8.54-12.49,21.03-19.59,34.65-25.08,9.08-3.66,17.75-8.27,23.49-16.32,6.36-8.91,11.74-18.53,17.45-27.9,1.8-2.95.78-4.95-2.48-6.12-3.91-1.4-7.66-3.29-11.64-4.46-1.52-.45-4.09-.08-5.09.97-5.15,5.38-10.57,10.67-14.72,16.79-6.04,8.9-13.24,16.28-22.73,21.22-5.59,2.91-11.52,5.18-17.35,7.6-12.81,5.31-22.12,14.23-29.11,26.19-3.55,6.08-8.19,11.76-13.25,16.69-10.94,10.65-24.83,15.72-39.44,19.18-18.07,4.29-34.24,12.19-43.71,28.89-10.36,18.27-25.15,31.15-43.55,40.48-2.04,1.03-3.87,2.48-6.54,4.22ZM26.36,207.01c3.67-2.41,6.41-4.65,9.5-6.18,16.87-8.36,30.03-20.44,39.55-36.84,8.21-14.13,20.56-23.88,35.93-29.5,5.76-2.11,11.71-3.83,17.69-5.22,19.89-4.61,35.17-15.36,45.13-33.3,6.91-12.44,17.24-20.93,30.1-26.6,2.43-1.07,4.86-2.18,7.36-3.06,13.52-4.77,23.99-13.09,31.7-25.33,3.32-5.26,8.25-9.51,12.46-14.21.83-.93,1.7-1.82,2.73-2.91-3.37-2.06-6.34-3.87-9.31-5.69-14-8.57-16.25-8.47-25.05,5.26-10.42,16.27-24.15,27.44-42.88,32.85-12.59,3.63-22.32,11.39-28.82,23.13-2.96,5.34-6.42,10.59-10.52,15.08-11.07,12.11-25.36,18.52-41.28,21.54-22.9,4.34-40.07,16.02-49.87,37.8-4.13,9.18-10.32,17.11-18.29,23.4-5.35,4.22-10.99,8.07-16.48,12.11-4.37,3.21-4.49,5.5-.31,9.04,3.54,3,7.22,5.85,10.66,8.63Z"/>
    </g>
  </g>
</svg>